<?xml version="1.0" standalone="no"?>
<!DOCTYPE svg PUBLIC "-//W3C//DTD SVG 20010904//EN"
 "http://www.w3.org/TR/2001/REC-SVG-20010904/DTD/svg10.dtd">
<svg version="1.0" xmlns="http://www.w3.org/2000/svg"
 width="760.000000pt" height="570.000000pt" viewBox="0 0 760.000000 570.000000"
 preserveAspectRatio="xMidYMid meet">

<g transform="translate(0.000000,570.000000) scale(0.100000,-0.100000)"
fill="#382933" stroke="none">
<path d="M1193 5576 l-27 -24 -7 -293 c-4 -162 -8 -494 -8 -739 -1 -415 0
-447 17 -475 25 -40 142 -181 333 -401 86 -98 322 -370 524 -604 202 -234 422
-488 489 -565 67 -77 338 -390 601 -695 539 -623 605 -695 649 -709 17 -6 130
-17 251 -26 121 -8 519 -38 885 -65 l665 -51 50 -52 c744 -779 771 -804 832
-775 60 29 61 40 27 578 -21 354 -25 393 -39 416 -17 27 -344 337 -414 392
-57 45 -92 52 -129 26 -17 -12 -22 -25 -22 -59 l0 -44 189 -176 c104 -97 196
-186 204 -199 24 -36 35 -124 47 -370 15 -305 20 -300 -137 -135 -124 131
-315 330 -472 491 l-94 96 11 59 c15 74 113 1146 114 1236 l1 67 -59 63 c-130
139 -2653 2709 -2787 2840 -54 51 -92 80 -116 86 -36 10 -424 44 -1156 101
-209 16 -383 30 -387 30 -4 0 -19 -11 -35 -24z m907 -212 c349 -29 569 -51
576 -58 6 -6 33 -146 59 -311 25 -165 71 -448 101 -629 30 -180 54 -339 54
-352 0 -17 -6 -24 -18 -24 -12 0 -151 138 -353 347 -184 190 -364 377 -400
415 -73 75 -92 81 -146 48 -27 -16 -33 -26 -33 -53 0 -42 24 -69 444 -505 177
-184 328 -344 336 -358 10 -16 11 -27 4 -34 -7 -7 -125 12 -375 60 -200 38
-508 97 -684 131 -195 36 -326 66 -335 75 -13 12 -14 78 -12 467 1 248 5 539
8 646 l7 194 101 -6 c55 -4 355 -27 666 -53z m1385 -822 c461 -468 566 -580
574 -610 6 -20 26 -147 46 -282 38 -261 152 -1002 161 -1049 4 -17 0 -31 -9
-40 -17 -13 -94 64 -657 649 -388 404 -488 514 -495 542 -5 23 -72 431 -166
1013 -27 171 -52 316 -54 323 -7 19 4 34 21 30 8 -2 268 -261 579 -576z
m-1551 -722 c199 -38 506 -97 684 -130 178 -34 334 -65 346 -70 12 -4 137
-127 277 -272 666 -690 894 -930 897 -943 4 -18 -5 -23 -79 -34 -110 -18
-1035 -121 -1081 -121 -53 0 -62 9 -329 319 -194 226 -237 276 -778 900 -187
217 -341 401 -341 408 0 7 10 13 22 13 12 0 184 -31 382 -70z m2741 -492 c209
-211 496 -500 637 -643 l258 -260 -5 -50 c-3 -28 -26 -275 -51 -550 -29 -322
-50 -505 -58 -513 -10 -10 -46 22 -177 155 -191 194 -659 678 -743 770 l-58
63 -38 257 c-22 142 -68 445 -105 674 -68 436 -73 479 -52 479 6 0 183 -172
392 -382z m-155 -1310 c165 -173 369 -386 752 -784 43 -44 78 -89 78 -99 0
-17 -8 -18 -122 -12 -68 4 -366 24 -663 46 -297 22 -585 43 -640 47 l-99 7
-49 50 c-26 27 -175 196 -330 375 -155 179 -296 342 -314 362 -17 20 -33 45
-35 56 -3 18 16 21 297 56 324 41 825 95 890 97 40 1 43 -1 235 -201z"/>
</g>
</svg>
